<?xml version="1.0" encoding="UTF-8"?>
<svg viewBox="0 0 235 39" version="1.1" xmlns="http://www.w3.org/2000/svg" xmlns:xlink="http://www.w3.org/1999/xlink">
    <defs>
        <linearGradient x1="147.977084%" y1="2.32215689%" x2="56.1750887%" y2="95.1160663%" id="linearGradient-1">
            <stop stop-color="#4F4F4F" offset="0%"></stop>
            <stop stop-color="#434343" offset="100%"></stop>
        </linearGradient>
    </defs>
    <g stroke="none" stroke-width="1" fill="none" fill-rule="evenodd">
        <g fill="url(#linearGradient-1)">
            <polygon points="234.008 2.008 234.008 7.624 225.368 7.624 225.368 37 219.464 37 219.464 7.624 211.016 7.624 211.016 2.008"></polygon>
            <path d="M207.944,2.008 L207.944,38.632 C207.719999,38.3439986 207.224004,37.8160038 206.456,37.048 C205.687996,36.2799962 204.744006,35.3600054 203.624,34.288 C202.503994,33.2159946 201.264007,32.0320065 199.904,30.736 C198.543993,29.4399935 197.160007,28.1280066 195.752,26.8 C194.343993,25.4719934 192.968007,24.1680064 191.624,22.888 C190.279993,21.6079936 189.056006,20.4320054 187.952,19.36 C186.847994,18.2879946 185.920004,17.3760038 185.168,16.624 C184.415996,15.8719962 183.928001,15.3520014 183.704,15.064 C183.672,14.9999997 183.544001,14.8320014 183.32,14.56 C183.095999,14.2879986 182.904001,14.0400011 182.744,13.816 L182.888,15.352 L182.888,37 L177.032,37 L177.032,0.424 C177.256001,0.71200144 177.751996,1.23199624 178.52,1.984 C179.288004,2.73600376 180.231994,3.63999472 181.352,4.696 C182.472006,5.75200528 183.711993,6.90399376 185.072,8.152 C186.432007,9.40000624 187.815993,10.6719935 189.224,11.968 C190.632007,13.2640065 192.007993,14.5439937 193.352,15.808 C194.696007,17.0720063 195.927994,18.2239948 197.048,19.264 C198.168006,20.3040052 199.103996,21.1919963 199.856,21.928 C200.608004,22.6640037 201.095999,23.1759986 201.32,23.464 L202.232,24.808 L202.088,23.176 L202.088,2.008 L207.944,2.008 Z"></path>
            <path d="M137.728,19.576 C137.728,17.1439878 138.199995,14.8400109 139.144,12.664 C140.088005,10.4879891 141.367992,8.58400816 142.984,6.952 C144.600008,5.31999184 146.487989,4.0240048 148.648,3.064 C150.808011,2.1039952 153.119988,1.624 155.584,1.624 C158.016012,1.624 160.319989,2.1039952 162.496,3.064 C164.672011,4.0240048 166.575992,5.31999184 168.208,6.952 C169.840008,8.58400816 171.127995,10.4879891 172.072,12.664 C173.016005,14.8400109 173.488,17.1439878 173.488,19.576 C173.488,22.0400123 173.016005,24.3519892 172.072,26.512 C171.127995,28.6720108 169.840008,30.5599919 168.208,32.176 C166.575992,33.7920081 164.672011,35.0639954 162.496,35.992 C160.319989,36.9200046 158.016012,37.384 155.584,37.384 C153.119988,37.384 150.808011,36.9200046 148.648,35.992 C146.487989,35.0639954 144.600008,33.7920081 142.984,32.176 C141.367992,30.5599919 140.088005,28.6720108 139.144,26.512 C138.199995,24.3519892 137.728,22.0400123 137.728,19.576 Z M143.632,19.576 C143.632,21.2720085 143.943997,22.8639926 144.568,24.352 C145.192003,25.8400074 146.055994,27.1359945 147.16,28.24 C148.264006,29.3440055 149.543993,30.2159968 151,30.856 C152.456007,31.4960032 154.031992,31.816 155.728,31.816 C157.360008,31.816 158.903993,31.4960032 160.36,30.856 C161.816007,30.2159968 163.079995,29.3440055 164.152,28.24 C165.224005,27.1359945 166.071997,25.8400074 166.696,24.352 C167.320003,22.8639926 167.632,21.2720085 167.632,19.576 C167.632,17.8799915 167.312003,16.2880074 166.672,14.8 C166.031997,13.3119926 165.168005,12.0080056 164.08,10.888 C162.991995,9.7679944 161.720007,8.8880032 160.264,8.248 C158.807993,7.6079968 157.248008,7.288 155.584,7.288 C153.919992,7.288 152.360007,7.6079968 150.904,8.248 C149.447993,8.8880032 148.184005,9.7679944 147.112,10.888 C146.039995,12.0080056 145.192003,13.3119926 144.568,14.8 C143.943997,16.2880074 143.632,17.8799915 143.632,19.576 Z M147,19.5342282 C147,18.3780703 147.224383,17.2827792 147.673154,16.2483221 C148.121926,15.2138651 148.730421,14.3087287 149.498658,13.5328859 C150.266894,12.7570431 151.164424,12.1409419 152.191275,11.6845638 C153.218126,11.2281856 154.31722,11 155.488591,11 C156.644749,11 157.74004,11.2281856 158.774497,11.6845638 C159.808954,12.1409419 160.71409,12.7570431 161.489933,13.5328859 C162.265776,14.3087287 162.878074,15.2138651 163.326846,16.2483221 C163.775617,17.2827792 164,18.3780703 164,19.5342282 C164,20.7055987 163.775617,21.8046929 163.326846,22.8315436 C162.878074,23.8583944 162.265776,24.7559246 161.489933,25.5241611 C160.71409,26.2923976 159.808954,26.8970895 158.774497,27.338255 C157.74004,27.7794206 156.644749,28 155.488591,28 C154.31722,28 153.218126,27.7794206 152.191275,27.338255 C151.164424,26.8970895 150.266894,26.2923976 149.498658,25.5241611 C148.730421,24.7559246 148.121926,23.8583944 147.673154,22.8315436 C147.224383,21.8046929 147,20.7055987 147,19.5342282 Z M149.806711,19.5342282 C149.806711,20.3404962 149.955032,21.0973119 150.251678,21.804698 C150.548324,22.5120841 150.959058,23.1281853 151.483893,23.6530201 C152.008727,24.177855 152.617222,24.5923922 153.309396,24.8966443 C154.001569,25.2008964 154.750779,25.3530201 155.557047,25.3530201 C156.33289,25.3530201 157.066887,25.2008964 157.75906,24.8966443 C158.451234,24.5923922 159.052123,24.177855 159.561745,23.6530201 C160.071367,23.1281853 160.474495,22.5120841 160.771141,21.804698 C161.067787,21.0973119 161.216107,20.3404962 161.216107,19.5342282 C161.216107,18.7279602 161.063984,17.9711445 160.759732,17.2637584 C160.455479,16.5563723 160.044745,15.936468 159.527517,15.4040268 C159.010288,14.8715857 158.405596,14.4532454 157.713423,14.1489933 C157.021249,13.8447412 156.279646,13.6926174 155.488591,13.6926174 C154.697535,13.6926174 153.955932,13.8447412 153.263758,14.1489933 C152.571585,14.4532454 151.970696,14.8715857 151.461074,15.4040268 C150.951452,15.936468 150.548324,16.5563723 150.251678,17.2637584 C149.955032,17.9711445 149.806711,18.7279602 149.806711,19.5342282 Z M151,19.5181208 C151,18.9060372 151.118791,18.3261772 151.356376,17.7785235 C151.593961,17.2308697 151.916105,16.7516799 152.322819,16.3409396 C152.729532,15.9301993 153.204695,15.6040281 153.748322,15.3624161 C154.291949,15.1208042 154.873822,15 155.49396,15 C156.106043,15 156.685903,15.1208042 157.233557,15.3624161 C157.781211,15.6040281 158.260401,15.9301993 158.671141,16.3409396 C159.081881,16.7516799 159.406039,17.2308697 159.643624,17.7785235 C159.881209,18.3261772 160,18.9060372 160,19.5181208 C160,20.1382581 159.881209,20.7201315 159.643624,21.2637584 C159.406039,21.8073853 159.081881,22.2825483 158.671141,22.6892617 C158.260401,23.0959752 157.781211,23.4161062 157.233557,23.6496644 C156.685903,23.8832226 156.106043,24 155.49396,24 C154.873822,24 154.291949,23.8832226 153.748322,23.6496644 C153.204695,23.4161062 152.729532,23.0959752 152.322819,22.6892617 C151.916105,22.2825483 151.593961,21.8073853 151.356376,21.2637584 C151.118791,20.7201315 151,20.1382581 151,19.5181208 Z M152.485906,19.5181208 C152.485906,19.9449686 152.564429,20.3456357 152.721477,20.7201342 C152.878524,21.0946327 153.095972,21.420804 153.373826,21.6986577 C153.651679,21.9765115 153.973824,22.1959723 154.340268,22.357047 C154.706713,22.5181216 155.103354,22.5986577 155.530201,22.5986577 C155.940942,22.5986577 156.329528,22.5181216 156.695973,22.357047 C157.062418,22.1959723 157.380536,21.9765115 157.650336,21.6986577 C157.920136,21.420804 158.133556,21.0946327 158.290604,20.7201342 C158.447652,20.3456357 158.526174,19.9449686 158.526174,19.5181208 C158.526174,19.091273 158.445638,18.6906059 158.284564,18.3161074 C158.123489,17.9416089 157.906042,17.6134242 157.632215,17.3315436 C157.358388,17.049663 157.038257,16.8281887 156.671812,16.6671141 C156.305367,16.5060395 155.912754,16.4255034 155.49396,16.4255034 C155.075166,16.4255034 154.682552,16.5060395 154.316107,16.6671141 C153.949663,16.8281887 153.631545,17.049663 153.361745,17.3315436 C153.091945,17.6134242 152.878524,17.9416089 152.721477,18.3161074 C152.564429,18.6906059 152.485906,19.091273 152.485906,19.5181208 Z"></path>
            <polygon points="114.032 37 114.032 2.008 135.296 2.008 135.296 7.432 119.888 7.432 119.888 17.224 133.28 17.224 133.28 22.696 119.888 22.696 119.888 37"></polygon>
            <polygon points="86.032 37 86.032 2.008 109.264 2.008 109.264 7.336 91.888 7.336 91.888 16.744 107.344 16.744 107.344 22.216 91.888 22.216 91.888 31.528 109.936 31.528 109.936 37"></polygon>
            <path d="M65.904,19.432 L70.608,19.432 C71.8240061,19.432 72.831996,19.2240021 73.632,18.808 C74.432004,18.3919979 75.0719976,17.8720031 75.552,17.248 C76.0320024,16.6239969 76.367999,15.9680034 76.56,15.28 C76.752001,14.5919966 76.848,13.9760027 76.848,13.432 C76.848,12.9199974 76.7600009,12.3200034 76.584,11.632 C76.4079991,10.9439966 76.0880023,10.296003 75.624,9.688 C75.1599977,9.07999696 74.528004,8.56800208 73.728,8.152 C72.927996,7.73599792 71.9040062,7.528 70.656,7.528 L65.904,7.528 L65.904,19.432 Z M60.048,37 L60.048,2.008 L69.936,2.008 C71.8560096,2.008 73.6079921,2.26399744 75.192,2.776 C76.7760079,3.28800256 78.1199945,4.0239952 79.224,4.984 C80.3280055,5.9440048 81.183997,7.12799296 81.792,8.536 C82.400003,9.94400704 82.704,11.5279912 82.704,13.288 C82.704,14.696007 82.4960021,16.095993 82.08,17.488 C81.6639979,18.880007 80.9840047,20.1279945 80.04,21.232 C79.0959953,22.3360055 77.8720075,23.2319966 76.368,23.92 C74.8639925,24.6080034 73.008011,24.952 70.8,24.952 L65.904,24.952 L65.904,37 L60.048,37 Z"></path>
            <path d="M44.008,25.672 L44.008,37 L38.104,37 L38.104,25.672 C37.9439992,25.4479989 37.5440032,24.736006 36.904,23.536 C36.2639968,22.335994 35.4800046,20.8960084 34.552,19.216 C33.6239954,17.5359916 32.6480051,15.7440095 31.624,13.84 C30.5999949,11.9359905 29.6240046,10.1440084 28.696,8.464 C27.7679954,6.7839916 26.9840032,5.344006 26.344,4.144 C25.7039968,2.943994 25.3040008,2.23200112 25.144,2.008 L31.816,2.008 C31.9440006,2.23200112 32.1919982,2.68799656 32.56,3.376 C32.9280018,4.06400344 33.3679974,4.89599512 33.88,5.872 C34.3920026,6.84800488 34.951997,7.91999416 35.56,9.088 L37.384,12.592 C37.992003,13.7600058 38.5679973,14.8799946 39.112,15.952 C39.6560027,17.0240054 40.1359979,17.959996 40.552,18.76 L41.08,20.392 C41.2080006,20.1359987 41.3199995,19.8560015 41.416,19.552 C41.5120005,19.2479985 41.6079995,18.9840011 41.704,18.76 C42.1200021,17.959996 42.5999973,17.0240054 43.144,15.952 C43.6880027,14.8799946 44.255997,13.7600058 44.848,12.592 L46.624,9.088 C47.216003,7.91999416 47.7599975,6.84800488 48.256,5.872 C48.7520025,4.89599512 49.1759982,4.06400344 49.528,3.376 C49.8800018,2.68799656 50.1199994,2.23200112 50.248,2.008 L56.92,2.008 L44.008,25.672 Z"></path>
            <polygon points="22.992 2 22.992 7.616 14.352 7.616 14.352 36.992 8.448 36.992 8.448 7.616 0 7.616 0 2"></polygon>
        </g>
    </g>
</svg>